<svg width="512" height="512" viewBox="0 0 512 512" fill="none" xmlns="http://www.w3.org/2000/svg">
<g id="01d">
<g id="line color">
<path id="Vector" d="M408.417 256C408.425 286.146 399.494 315.616 382.753 340.686C366.011 365.756 342.212 385.298 314.364 396.841C286.516 408.385 255.871 411.411 226.303 405.537C196.735 399.664 169.573 385.154 148.252 363.843C126.93 342.533 112.407 315.378 106.519 285.813C100.631 256.248 103.642 225.601 115.171 197.748C126.701 169.894 146.231 146.085 171.292 129.331C196.353 112.577 225.82 103.631 255.965 103.625C275.982 103.616 295.804 107.55 314.299 115.204C332.795 122.857 349.601 134.079 363.758 148.229C377.915 162.38 389.146 179.18 396.809 197.672C404.472 216.164 408.416 235.984 408.417 256V256Z" fill="#FED19A"/>
<path id="Vector_2" d="M255.965 411.835C225.147 411.82 195.026 402.667 169.409 385.535C143.792 368.402 123.83 344.059 112.047 315.583C100.264 287.106 97.1888 255.775 103.21 225.552C109.232 195.328 124.08 167.568 145.877 145.781C167.674 123.995 195.441 109.161 225.668 103.154C255.895 97.1472 287.224 100.238 315.694 112.035C344.165 123.832 368.499 143.805 385.619 169.431C402.739 195.056 411.876 225.182 411.876 256C411.829 297.329 395.385 336.95 366.154 366.166C336.923 395.383 297.294 411.807 255.965 411.835V411.835ZM255.965 107.077C226.516 107.092 197.733 115.839 173.254 132.211C148.775 148.582 129.7 171.845 118.44 199.057C107.18 226.268 104.242 256.208 109.996 285.089C115.75 313.971 129.938 340.498 150.767 361.317C171.595 382.136 198.129 396.312 227.013 402.052C255.898 407.793 285.835 404.84 313.042 393.568C340.248 382.296 363.502 363.21 379.862 338.723C396.223 314.237 404.956 285.449 404.957 256C404.912 216.506 389.197 178.644 361.263 150.724C333.33 122.805 295.46 107.11 255.965 107.084V107.077Z" fill="#323C6B"/>
<path id="Vector_3" d="M255.965 103.625C230.967 103.608 206.349 109.747 184.287 121.502C162.224 133.257 143.397 150.264 129.467 171.022C158.787 151.319 194.04 142.413 229.199 145.825C264.359 149.236 297.242 164.755 322.227 189.727C347.211 214.7 362.746 247.575 366.175 282.733C369.604 317.891 360.715 353.148 341.027 382.478C368.125 364.255 388.652 337.81 399.584 307.039C410.515 276.268 411.272 242.799 401.744 211.565C392.216 180.33 372.906 152.983 346.66 133.554C320.414 114.124 288.621 103.639 255.965 103.645V103.625Z" fill="#F4BB87"/>
<g id="ray">
<path id="16" d="M256 70.656C255.083 70.656 254.203 70.2915 253.554 69.6427C252.905 68.994 252.541 68.114 252.541 67.1965V20.7567C252.541 19.8392 252.905 18.9593 253.554 18.3105C254.203 17.6618 255.083 17.2973 256 17.2973C256.918 17.2973 257.797 17.6618 258.446 18.3105C259.095 18.9593 259.459 19.8392 259.459 20.7567V67.1965C259.459 68.114 259.095 68.994 258.446 69.6427C257.797 70.2915 256.918 70.656 256 70.656Z" fill="#323C6B"/>
<path id="15" d="M256 494.703C255.083 494.703 254.203 494.338 253.554 493.689C252.905 493.041 252.541 492.161 252.541 491.243V444.803C252.541 443.886 252.905 443.006 253.554 442.357C254.203 441.708 255.083 441.344 256 441.344C256.918 441.344 257.797 441.708 258.446 442.357C259.095 443.006 259.459 443.886 259.459 444.803V491.243C259.459 492.161 259.095 493.041 258.446 493.689C257.797 494.338 256.918 494.703 256 494.703Z" fill="#323C6B"/>
<path id="14" d="M256 473.801C255.083 473.801 254.203 473.436 253.554 472.787C252.905 472.139 252.541 471.259 252.541 470.341V444.803C252.541 443.886 252.905 443.006 253.554 442.357C254.203 441.708 255.083 441.344 256 441.344C256.918 441.344 257.797 441.708 258.446 442.357C259.095 443.006 259.459 443.886 259.459 444.803V470.341C259.459 471.259 259.095 472.139 258.446 472.787C257.797 473.436 256.918 473.801 256 473.801Z" fill="#323C6B"/>
<path id="13" d="M207.159 77.312C206.399 77.3104 205.66 77.058 205.057 76.594C204.454 76.1299 204.021 75.4801 203.824 74.7451L197.189 50.0791C197.072 49.6403 197.041 49.1825 197.101 48.7321C197.16 48.2816 197.307 47.8472 197.534 47.4537C197.762 47.0601 198.064 46.7152 198.424 46.4386C198.785 46.1619 199.196 45.959 199.635 45.8413C200.074 45.7236 200.532 45.6936 200.982 45.7528C201.433 45.812 201.867 45.9594 202.26 46.1865C202.654 46.4136 202.999 46.7161 203.276 47.0765C203.552 47.4369 203.755 47.8483 203.873 48.2871L210.48 72.96C210.617 73.4724 210.634 74.0094 210.531 74.5295C210.427 75.0496 210.205 75.5389 209.882 75.9595C209.559 76.3801 209.144 76.7209 208.668 76.9554C208.192 77.1899 207.669 77.3119 207.139 77.312H207.159Z" fill="#323C6B"/>
<path id="12" d="M311.504 466.73C310.743 466.728 310.004 466.475 309.401 466.011C308.798 465.547 308.365 464.898 308.169 464.163L301.554 439.49C301.436 439.051 301.406 438.593 301.466 438.143C301.525 437.692 301.672 437.258 301.899 436.864C302.127 436.471 302.429 436.126 302.789 435.849C303.15 435.573 303.561 435.37 304 435.252C304.439 435.134 304.897 435.104 305.347 435.163C305.798 435.223 306.232 435.37 306.625 435.597C307.019 435.824 307.364 436.127 307.641 436.487C307.917 436.847 308.12 437.259 308.238 437.698L314.852 462.371C314.989 462.883 315.006 463.42 314.903 463.94C314.799 464.46 314.577 464.949 314.254 465.37C313.931 465.791 313.515 466.131 313.04 466.366C312.564 466.6 312.041 466.723 311.51 466.723L311.504 466.73Z" fill="#323C6B"/>
<path id="11" d="M161.723 96.3874C161.114 96.3886 160.516 96.2294 159.989 95.9257C159.462 95.622 159.024 95.1846 158.72 94.6577L145.948 72.5172C145.496 71.723 145.377 70.7825 145.616 69.9009C145.856 69.0193 146.434 68.2681 147.225 67.8114C148.016 67.3546 148.956 67.2293 149.839 67.4628C150.722 67.6963 151.477 68.2696 151.939 69.0577L164.712 91.1983C165.015 91.7242 165.175 92.3207 165.175 92.928C165.175 93.5352 165.015 94.1318 164.712 94.6577C164.408 95.1836 163.971 95.6203 163.446 95.9239C162.92 96.2276 162.323 96.3874 161.716 96.3874H161.723Z" fill="#323C6B"/>
<path id="10" d="M363.292 445.523C362.683 445.524 362.085 445.365 361.558 445.061C361.031 444.758 360.593 444.32 360.289 443.793L347.517 421.653C347.065 420.859 346.946 419.918 347.185 419.037C347.425 418.155 348.003 417.404 348.794 416.947C349.585 416.49 350.525 416.365 351.408 416.598C352.291 416.832 353.046 417.405 353.508 418.193L366.281 440.334C366.584 440.86 366.744 441.456 366.744 442.064C366.744 442.671 366.584 443.267 366.281 443.793C365.977 444.319 365.54 444.756 365.014 445.059C364.489 445.363 363.892 445.523 363.285 445.523H363.292Z" fill="#323C6B"/>
<path id="99" d="M92.9211 165.812C92.3138 165.812 91.7173 165.652 91.1914 165.348L69.0508 152.576C68.6542 152.351 68.3061 152.049 68.0266 151.688C67.7471 151.328 67.5416 150.915 67.4221 150.475C67.3025 150.035 67.2713 149.575 67.3301 149.123C67.3889 148.67 67.5366 148.234 67.7647 147.839C67.9928 147.444 68.2969 147.098 68.6593 146.821C69.0217 146.543 69.4353 146.341 69.8764 146.224C70.3175 146.107 70.7773 146.079 71.2293 146.141C71.6814 146.203 72.1167 146.353 72.5103 146.584L94.6508 159.357C95.3103 159.737 95.8257 160.325 96.1171 161.029C96.4085 161.732 96.4596 162.512 96.2625 163.248C96.0654 163.983 95.6311 164.633 95.027 165.097C94.4228 165.561 93.6826 165.812 92.9211 165.812Z" fill="#323C6B"/>
<path id="9" d="M442.064 367.395C441.456 367.395 440.86 367.235 440.334 366.931L418.193 354.159C417.797 353.933 417.449 353.631 417.169 353.271C416.89 352.91 416.684 352.498 416.565 352.058C416.445 351.617 416.414 351.158 416.473 350.705C416.531 350.253 416.679 349.817 416.907 349.422C417.135 349.026 417.439 348.68 417.802 348.403C418.164 348.126 418.578 347.923 419.019 347.807C419.46 347.69 419.92 347.662 420.372 347.724C420.824 347.786 421.259 347.936 421.653 348.167L443.793 360.939C444.453 361.32 444.968 361.908 445.26 362.611C445.551 363.315 445.602 364.095 445.405 364.831C445.208 365.566 444.774 366.216 444.169 366.68C443.565 367.143 442.825 367.395 442.064 367.395V367.395Z" fill="#323C6B"/>
<path id="88" d="M74.2746 211.435C73.9709 211.436 73.6685 211.396 73.3751 211.318L48.7092 204.703C48.2703 204.585 47.859 204.383 47.4985 204.106C47.1381 203.829 46.8357 203.484 46.6086 203.091C46.3815 202.697 46.2341 202.263 46.1749 201.812C46.1156 201.362 46.1457 200.904 46.2634 200.465C46.381 200.026 46.584 199.615 46.8606 199.255C47.1373 198.894 47.4822 198.592 47.8757 198.365C48.2692 198.138 48.7036 197.99 49.1541 197.931C49.6046 197.872 50.0623 197.902 50.5012 198.019L75.1671 204.634C75.9778 204.851 76.682 205.355 77.1485 206.053C77.615 206.75 77.812 207.594 77.7028 208.426C77.5936 209.258 77.1856 210.022 76.555 210.576C75.9243 211.129 75.1138 211.435 74.2746 211.435V211.435Z" fill="#323C6B"/>
<path id="8" d="M463.692 315.779C463.388 315.78 463.086 315.74 462.793 315.662L438.127 309.047C437.688 308.93 437.276 308.727 436.916 308.45C436.556 308.173 436.253 307.828 436.026 307.435C435.799 307.041 435.652 306.607 435.592 306.157C435.533 305.706 435.563 305.248 435.681 304.809C435.799 304.371 436.001 303.959 436.278 303.599C436.555 303.238 436.9 302.936 437.293 302.709C437.687 302.482 438.121 302.334 438.572 302.275C439.022 302.216 439.48 302.246 439.919 302.364L464.585 308.978C465.395 309.195 466.1 309.699 466.566 310.397C467.032 311.095 467.23 311.938 467.12 312.77C467.011 313.602 466.603 314.366 465.972 314.92C465.342 315.473 464.531 315.779 463.692 315.779Z" fill="#323C6B"/>
<path id="77" d="M50.0515 315.779C49.2123 315.779 48.4018 315.473 47.7711 314.92C47.1404 314.366 46.7325 313.602 46.6233 312.77C46.5141 311.938 46.7111 311.095 47.1776 310.397C47.6441 309.699 48.3482 309.195 49.1589 308.978L73.8318 302.364C74.2706 302.246 74.7284 302.216 75.1789 302.275C75.6293 302.334 76.0637 302.482 76.4573 302.709C76.8508 302.936 77.1957 303.238 77.4724 303.599C77.749 303.959 77.952 304.371 78.0696 304.809C78.1873 305.248 78.2174 305.706 78.1581 306.157C78.0989 306.607 77.9515 307.041 77.7244 307.435C77.4973 307.828 77.1949 308.173 76.8345 308.45C76.474 308.727 76.0627 308.93 75.6238 309.047L50.9509 315.662C50.6576 315.74 50.3552 315.78 50.0515 315.779Z" fill="#323C6B"/>
<path id="7" d="M439.462 211.435C438.623 211.435 437.812 211.129 437.182 210.576C436.551 210.022 436.143 209.258 436.034 208.426C435.925 207.594 436.122 206.75 436.588 206.053C437.055 205.355 437.759 204.851 438.57 204.634L463.242 198.019C464.129 197.782 465.073 197.906 465.868 198.365C466.663 198.823 467.243 199.579 467.48 200.465C467.718 201.352 467.594 202.296 467.135 203.091C466.676 203.886 465.921 204.465 465.034 204.703L440.361 211.318C440.068 211.396 439.766 211.436 439.462 211.435V211.435Z" fill="#323C6B"/>
<path id="66" d="M71.68 367.395C70.9185 367.395 70.1783 367.143 69.5741 366.68C68.97 366.216 68.5357 365.566 68.3386 364.831C68.1415 364.095 68.1926 363.315 68.484 362.611C68.7754 361.908 69.2908 361.32 69.9503 360.939L92.0908 348.167C92.885 347.715 93.8255 347.596 94.7071 347.836C95.5887 348.075 96.3399 348.653 96.7966 349.445C97.2534 350.236 97.3787 351.175 97.1452 352.059C96.9117 352.942 96.3384 353.697 95.5503 354.159L73.4097 366.931C72.8838 367.235 72.2873 367.395 71.68 367.395V367.395Z" fill="#323C6B"/>
<path id="6" d="M420.816 165.812C420.054 165.812 419.314 165.561 418.71 165.097C418.106 164.633 417.671 163.983 417.474 163.248C417.277 162.512 417.328 161.732 417.62 161.029C417.911 160.325 418.426 159.737 419.086 159.357L441.226 146.584C441.62 146.353 442.055 146.203 442.507 146.141C442.959 146.079 443.419 146.107 443.86 146.224C444.301 146.341 444.715 146.543 445.077 146.821C445.44 147.098 445.744 147.444 445.972 147.839C446.2 148.234 446.348 148.67 446.407 149.123C446.465 149.575 446.434 150.035 446.315 150.475C446.195 150.915 445.99 151.328 445.71 151.688C445.431 152.049 445.082 152.351 444.686 152.576L422.545 165.348C422.019 165.652 421.423 165.812 420.816 165.812Z" fill="#323C6B"/>
<path id="55" d="M150.452 445.523C149.845 445.523 149.248 445.363 148.722 445.059C148.196 444.756 147.76 444.319 147.456 443.793C147.152 443.267 146.993 442.671 146.993 442.064C146.993 441.456 147.152 440.86 147.456 440.334L160.228 418.193C160.69 417.405 161.445 416.832 162.329 416.598C163.212 416.365 164.151 416.49 164.943 416.947C165.734 417.404 166.312 418.155 166.551 419.037C166.791 419.918 166.672 420.859 166.22 421.653L153.448 443.793C153.144 444.319 152.707 444.756 152.182 445.06C151.656 445.363 151.059 445.523 150.452 445.523Z" fill="#323C6B"/>
<path id="5" d="M352.021 96.3875C351.414 96.3874 350.817 96.2276 350.291 95.9239C349.765 95.6203 349.328 95.1836 349.025 94.6577C348.721 94.1318 348.561 93.5352 348.561 92.928C348.561 92.3207 348.721 91.7242 349.025 91.1983L361.797 69.0577C362.023 68.6611 362.324 68.313 362.685 68.0335C363.046 67.754 363.458 67.5485 363.898 67.429C364.338 67.3094 364.798 67.2782 365.25 67.337C365.703 67.3958 366.139 67.5435 366.534 67.7716C366.929 67.9997 367.276 68.3038 367.553 68.6662C367.83 69.0286 368.032 69.4423 368.149 69.8833C368.266 70.3244 368.294 70.7842 368.232 71.2362C368.17 71.6883 368.02 72.1236 367.789 72.5172L355.017 94.6577C354.713 95.1836 354.276 95.6203 353.75 95.924C353.225 96.2276 352.628 96.3874 352.021 96.3875V96.3875Z" fill="#323C6B"/>
<path id="44" d="M202.24 466.73C201.71 466.729 201.186 466.607 200.711 466.373C200.235 466.138 199.82 465.798 199.497 465.377C199.174 464.956 198.952 464.467 198.848 463.947C198.744 463.427 198.761 462.89 198.898 462.378L205.506 437.705C205.743 436.818 206.323 436.063 207.118 435.604C207.913 435.145 208.857 435.021 209.744 435.259C210.63 435.496 211.385 436.076 211.844 436.871C212.303 437.666 212.427 438.61 212.189 439.497L205.582 464.169C205.384 464.904 204.949 465.553 204.345 466.016C203.741 466.479 203.001 466.73 202.24 466.73Z" fill="#323C6B"/>
<path id="4" d="M306.584 77.312C306.054 77.3119 305.531 77.1899 305.055 76.9554C304.579 76.7209 304.164 76.3801 303.841 75.9595C303.518 75.5388 303.296 75.0496 303.192 74.5295C303.088 74.0094 303.106 73.4724 303.242 72.96L309.857 48.2871C310.095 47.4008 310.674 46.6452 311.469 46.1865C312.264 45.7278 313.208 45.6037 314.095 45.8413C314.981 46.0789 315.737 46.6589 316.195 47.4537C316.654 48.2484 316.778 49.1928 316.541 50.0791L309.919 74.7243C309.727 75.4632 309.295 76.1177 308.692 76.5857C308.089 77.0538 307.348 77.3091 306.584 77.312V77.312Z" fill="#323C6B"/>
<path id="33" d="M67.1965 259.459H20.7568C19.8393 259.459 18.9593 259.095 18.3106 258.446C17.6618 257.797 17.2973 256.918 17.2973 256C17.2973 255.082 17.6618 254.203 18.3106 253.554C18.9593 252.905 19.8393 252.541 20.7568 252.541H67.1965C68.1141 252.541 68.994 252.905 69.6428 253.554C70.2915 254.203 70.656 255.082 70.656 256C70.656 256.918 70.2915 257.797 69.6428 258.446C68.994 259.095 68.1141 259.459 67.1965 259.459Z" fill="#323C6B"/>
<path id="3" d="M491.243 259.459H444.803C443.886 259.459 443.006 259.095 442.357 258.446C441.708 257.797 441.344 256.918 441.344 256C441.344 255.082 441.708 254.203 442.357 253.554C443.006 252.905 443.886 252.541 444.803 252.541H491.243C492.161 252.541 493.041 252.905 493.689 253.554C494.338 254.203 494.703 255.082 494.703 256C494.703 256.918 494.338 257.797 493.689 258.446C493.041 259.095 492.161 259.459 491.243 259.459Z" fill="#323C6B"/>
<path id="22" d="M122.465 125.924C122.01 125.925 121.56 125.836 121.14 125.663C120.719 125.49 120.337 125.235 120.016 124.914L85.1719 90.0636C84.5417 89.4111 84.1931 88.5372 84.2009 87.6302C84.2088 86.7231 84.5726 85.8554 85.2141 85.214C85.8555 84.5726 86.7231 84.2088 87.6302 84.2009C88.5373 84.193 89.4111 84.5417 90.0636 85.1719L124.942 120.05C125.427 120.534 125.757 121.151 125.891 121.823C126.025 122.495 125.957 123.191 125.695 123.824C125.432 124.457 124.988 124.998 124.418 125.378C123.848 125.758 123.178 125.96 122.493 125.959L122.465 125.924Z" fill="#323C6B"/>
<path id="2" d="M424.379 427.838C423.924 427.839 423.474 427.75 423.054 427.577C422.633 427.404 422.251 427.149 421.93 426.828L387.051 391.95C386.421 391.297 386.072 390.423 386.08 389.516C386.088 388.609 386.452 387.742 387.093 387.1C387.735 386.459 388.602 386.095 389.51 386.087C390.417 386.079 391.29 386.428 391.943 387.058L426.821 421.936C427.306 422.42 427.637 423.037 427.771 423.709C427.905 424.381 427.836 425.078 427.574 425.71C427.312 426.343 426.867 426.884 426.297 427.264C425.727 427.644 425.057 427.846 424.372 427.845L424.379 427.838Z" fill="#323C6B"/>
<path id="11_2" d="M389.535 125.924C388.85 125.926 388.18 125.723 387.61 125.343C387.04 124.963 386.596 124.422 386.333 123.79C386.071 123.157 386.002 122.46 386.136 121.788C386.27 121.116 386.601 120.499 387.086 120.016L421.964 85.1373C422.617 84.5071 423.49 84.1584 424.397 84.1663C425.305 84.1742 426.172 84.538 426.814 85.1794C427.455 85.8208 427.819 86.6885 427.827 87.5956C427.835 88.5026 427.486 89.3765 426.856 90.029L391.978 124.907C391.33 125.556 390.452 125.922 389.535 125.924V125.924Z" fill="#323C6B"/>
<path id="1" d="M87.6212 427.838C86.9361 427.839 86.266 427.637 85.696 427.257C85.1259 426.877 84.6816 426.336 84.4192 425.704C84.1569 425.071 84.0884 424.374 84.2224 423.702C84.3564 423.03 84.6868 422.413 85.1719 421.929L120.05 387.051C120.703 386.421 121.576 386.072 122.484 386.08C123.391 386.088 124.258 386.452 124.9 387.093C125.541 387.735 125.905 388.602 125.913 389.51C125.921 390.417 125.572 391.29 124.942 391.943L90.0636 426.828C89.4152 427.475 88.5369 427.838 87.6212 427.838V427.838Z" fill="#323C6B"/>
<path id="circle" d="M255.965 411.835C225.147 411.82 195.026 402.667 169.409 385.535C143.792 368.402 123.83 344.059 112.047 315.583C100.264 287.106 97.1888 255.775 103.21 225.552C109.232 195.328 124.08 167.568 145.877 145.781C167.674 123.995 195.441 109.161 225.668 103.154C255.895 97.1472 287.224 100.238 315.694 112.035C344.165 123.832 368.499 143.805 385.619 169.431C402.739 195.056 411.876 225.182 411.876 256C411.829 297.329 395.385 336.95 366.154 366.166C336.923 395.383 297.294 411.807 255.965 411.835V411.835ZM255.965 107.077C226.516 107.092 197.733 115.839 173.254 132.211C148.775 148.582 129.7 171.845 118.44 199.057C107.18 226.268 104.242 256.208 109.996 285.089C115.75 313.971 129.938 340.498 150.767 361.317C171.595 382.136 198.129 396.312 227.013 402.052C255.898 407.793 285.835 404.84 313.042 393.568C340.248 382.296 363.502 363.21 379.862 338.723C396.223 314.237 404.956 285.449 404.957 256C404.912 216.506 389.197 178.644 361.263 150.724C333.33 122.805 295.46 107.11 255.965 107.084V107.077Z" fill="#323C6B"/>
</g>
<g id="spots">
<path id="spot2" d="M144.488 229.632C144.308 229.597 144.128 229.563 143.941 229.535C142.09 229.292 140.217 229.793 138.736 230.93C137.254 232.066 136.284 233.745 136.04 235.596C135.601 237.924 135.418 240.293 135.493 242.66C135.452 243.598 135.598 244.534 135.923 245.414C136.249 246.295 136.746 247.101 137.388 247.786C138.029 248.471 138.801 249.021 139.658 249.404C140.515 249.786 141.439 249.994 142.377 250.014C143.316 250.034 144.248 249.867 145.121 249.522C145.994 249.177 146.788 248.66 147.459 248.004C148.129 247.347 148.661 246.563 149.025 245.698C149.388 244.832 149.574 243.903 149.573 242.965C149.488 241.109 149.634 239.249 150.009 237.43C150.237 235.674 149.796 233.897 148.773 232.452C147.75 231.007 146.22 230 144.488 229.632V229.632Z" fill="#EEEFEE"/>
<path id="spot" d="M145.927 262.227C144.828 261.928 143.672 261.9 142.56 262.145C141.448 262.39 140.411 262.901 139.539 263.634C138.667 264.367 137.986 265.301 137.554 266.355C137.122 267.409 136.951 268.551 137.057 269.686C141.748 319.135 181.338 343.4 182.687 344.777C183.328 345.444 184.094 345.978 184.942 346.349C185.789 346.719 186.701 346.92 187.626 346.938C188.551 346.956 189.47 346.792 190.332 346.455C191.193 346.118 191.98 345.615 192.647 344.974C193.314 344.333 193.848 343.567 194.219 342.719C194.59 341.872 194.79 340.96 194.808 340.035C194.827 339.11 194.663 338.191 194.326 337.329C193.989 336.468 193.485 335.681 192.844 335.014C181.438 327.624 171.788 317.827 164.572 306.311C157.356 294.794 152.749 281.837 151.075 268.35C150.939 266.928 150.374 265.581 149.454 264.487C148.535 263.393 147.305 262.605 145.927 262.227V262.227Z" fill="#EEEFEE"/>
</g>
</g>
</g>
</svg>
